<?xml version="1.0" encoding="utf-8"?>
<svg xmlns="http://www.w3.org/2000/svg" xmlns:xlink="http://www.w3.org/1999/xlink" version="1.1" style="width:0;height:0;position:absolute;overflow:hidden;">
  <defs>
<symbol viewBox="0 0 670.6669921875 702" aria-labelledby="bwsi-entypo-check-title" id="si-entypo-check"><title id="bwsi-entypo-check-title">icon check</title><path d="M250.667 702c-22.667 0-41.333-9.333-56-28l-180-236C4 422 0 404.667 2.667 386s11.333-34 26-46 31.667-16.667 51-14c19.333 2.667 35 12 47 28l118 154 296-474c10.667-16 25-26 43-30s35.667-1.333 53 8c16 10.667 26 25 30 43s1.333 35.667-8 53l-350 560c-13.333 21.333-32 32-56 32l-2 2"/></symbol>
  </defs>
</svg>
